<?xml version="1.0" standalone="no"?>
<!DOCTYPE svg PUBLIC "-//W3C//DTD SVG 20010904//EN"
 "http://www.w3.org/TR/2001/REC-SVG-20010904/DTD/svg10.dtd">
<svg version="1.0" xmlns="http://www.w3.org/2000/svg"
 width="310.000000pt" height="310.000000pt" viewBox="0 0 310.000000 310.000000"
 preserveAspectRatio="xMidYMid meet">
<metadata>
Created by potrace 1.14, written by Peter Selinger 2001-2017
</metadata>
<g transform="translate(0.000000,310.000000) scale(0.100000,-0.100000)"
fill="#000000" stroke="none">
<path d="M1558 3095 c-2 -1 -37 -5 -78 -8 -136 -11 -299 -65 -417 -138 -112
-69 -220 -183 -291 -309 -33 -59 -77 -185 -87 -248 -3 -21 -8 -49 -10 -62 -7
-33 -7 -219 0 -250 3 -14 8 -41 11 -60 25 -129 113 -297 207 -392 82 -84 213
-155 447 -242 316 -119 466 -227 506 -362 14 -50 14 -66 -2 -129 -15 -62 -87
-150 -164 -200 -163 -107 -394 -36 -644 197 l-51 48 -25 -28 c-14 -15 -48 -54
-76 -87 -29 -33 -113 -131 -188 -217 -75 -86 -136 -161 -136 -166 0 -25 218
-196 349 -273 195 -116 374 -167 586 -167 260 0 480 79 691 249 226 183 354
430 356 689 1 162 -25 272 -94 400 -121 224 -251 322 -686 515 -89 40 -188 88
-219 106 -73 44 -154 123 -184 179 -48 93 -22 236 58 312 59 56 161 82 247 63
58 -12 187 -67 285 -121 103 -56 117 -61 123 -45 2 5 26 34 53 63 42 45 208
224 308 333 15 16 27 33 27 37 0 15 -181 141 -260 181 -66 34 -204 87 -240 92
-7 2 -94 19 -100 20 -45 11 -293 27 -302 20z"/>
</g>
</svg>
